<svg xmlns="http://www.w3.org/2000/svg" width="375" viewBox="0 0 375 375" height="375" version="1.0"><path fill="#DC4A86" d="M 187.886719 288.886719 C 130.597656 288.886719 83.988281 242.285156 83.988281 184.992188 C 83.988281 127.707031 130.597656 81.097656 187.886719 81.097656 C 245.171875 81.097656 291.789062 127.707031 291.789062 184.992188 C 291.789062 242.277344 245.171875 288.886719 187.886719 288.886719 Z M 187.886719 101.644531 C 141.925781 101.644531 104.539062 139.03125 104.539062 184.984375 C 104.539062 230.933594 141.925781 268.320312 187.886719 268.320312 C 233.84375 268.320312 271.234375 230.933594 271.234375 184.984375 C 271.234375 139.03125 233.84375 101.644531 187.886719 101.644531 Z M 187.886719 101.644531"/><path fill="#DC4A86" d="M 227.601562 265.496094 C 215.992188 178.355469 139.71875 109.828125 138.957031 109.144531 L 152.570312 93.757812 C 155.941406 96.746094 235.332031 167.917969 247.972656 262.792969 Z M 227.601562 265.496094"/><path fill="#DC4A86" d="M 137.347656 175.273438 C 113.167969 175.273438 94.683594 172.449219 92.644531 172.132812 L 95.863281 151.839844 C 97.082031 152.019531 217.722656 170.359375 240.28125 111.285156 L 259.476562 118.613281 C 241.242188 166.351562 180.324219 175.273438 137.347656 175.273438 Z M 137.347656 175.273438"/><path fill="#DC4A86" d="M 137.738281 260.488281 L 118.398438 253.535156 C 118.792969 252.421875 159.878906 141.789062 284.167969 175.058594 L 278.851562 194.90625 C 173.140625 166.601562 139.144531 256.644531 137.738281 260.488281 Z M 137.738281 260.488281"/><path fill="#DC4A86" d="M 187.5 374.46875 C 84.167969 374.46875 0.101562 290.402344 0.101562 187.070312 C 0.101562 83.742188 84.167969 -0.324219 187.5 -0.324219 C 290.820312 -0.324219 374.898438 83.742188 374.898438 187.070312 C 374.898438 234.742188 356.976562 280.164062 324.453125 314.964844 C 320.574219 319.117188 314.066406 319.324219 309.929688 315.460938 C 305.789062 311.582031 305.566406 305.085938 309.433594 300.941406 C 338.398438 269.964844 354.339844 229.519531 354.339844 187.082031 C 354.339844 95.078125 279.496094 20.230469 187.5 20.230469 C 95.496094 20.230469 20.652344 95.078125 20.652344 187.082031 C 20.652344 279.074219 95.496094 353.921875 187.5 353.921875 C 215.957031 353.921875 244.050781 346.636719 268.742188 332.851562 C 273.714844 330.09375 279.957031 331.867188 282.722656 336.816406 C 285.488281 341.773438 283.714844 348.03125 278.757812 350.796875 C 251.019531 366.285156 219.453125 374.46875 187.5 374.46875 Z M 187.5 374.46875"/></svg>