<svg xmlns="http://www.w3.org/2000/svg" width="375" viewBox="0 0 375 375" height="375" version="1.0"><path fill="#0077B5" d="M 56.25 0 L 318.75 0 C 320.59375 0 322.429688 0.0898438 324.261719 0.269531 C 326.097656 0.453125 327.917969 0.722656 329.722656 1.082031 C 331.53125 1.441406 333.316406 1.886719 335.078125 2.421875 C 336.839844 2.957031 338.574219 3.578125 340.277344 4.28125 C 341.976562 4.988281 343.640625 5.773438 345.265625 6.640625 C 346.890625 7.511719 348.46875 8.457031 350 9.480469 C 351.53125 10.503906 353.011719 11.597656 354.433594 12.769531 C 355.859375 13.9375 357.222656 15.171875 358.523438 16.476562 C 359.828125 17.777344 361.0625 19.140625 362.230469 20.566406 C 363.402344 21.988281 364.496094 23.46875 365.519531 25 C 366.542969 26.53125 367.488281 28.109375 368.359375 29.734375 C 369.226562 31.359375 370.011719 33.023438 370.71875 34.722656 C 371.421875 36.425781 372.042969 38.160156 372.578125 39.921875 C 373.113281 41.683594 373.558594 43.46875 373.917969 45.277344 C 374.277344 47.082031 374.546875 48.902344 374.730469 50.738281 C 374.910156 52.570312 375 54.40625 375 56.25 L 375 318.75 C 375 320.59375 374.910156 322.429688 374.730469 324.261719 C 374.546875 326.097656 374.277344 327.917969 373.917969 329.722656 C 373.558594 331.53125 373.113281 333.316406 372.578125 335.078125 C 372.042969 336.839844 371.421875 338.574219 370.71875 340.277344 C 370.011719 341.976562 369.226562 343.640625 368.359375 345.265625 C 367.488281 346.890625 366.542969 348.46875 365.519531 350 C 364.496094 351.53125 363.402344 353.011719 362.230469 354.433594 C 361.0625 355.859375 359.828125 357.222656 358.523438 358.523438 C 357.222656 359.828125 355.859375 361.0625 354.433594 362.230469 C 353.011719 363.402344 351.53125 364.496094 350 365.519531 C 348.46875 366.542969 346.890625 367.488281 345.265625 368.359375 C 343.640625 369.226562 341.976562 370.011719 340.277344 370.71875 C 338.574219 371.421875 336.839844 372.042969 335.078125 372.578125 C 333.316406 373.113281 331.53125 373.558594 329.722656 373.917969 C 327.917969 374.277344 326.097656 374.546875 324.261719 374.730469 C 322.429688 374.910156 320.59375 375 318.75 375 L 56.25 375 C 54.40625 375 52.570312 374.910156 50.738281 374.730469 C 48.902344 374.546875 47.082031 374.277344 45.277344 373.917969 C 43.46875 373.558594 41.683594 373.113281 39.921875 372.578125 C 38.160156 372.042969 36.425781 371.421875 34.722656 370.71875 C 33.023438 370.011719 31.359375 369.226562 29.734375 368.359375 C 28.109375 367.488281 26.53125 366.542969 25 365.519531 C 23.46875 364.496094 21.988281 363.402344 20.566406 362.230469 C 19.140625 361.0625 17.777344 359.828125 16.476562 358.523438 C 15.171875 357.222656 13.9375 355.859375 12.769531 354.433594 C 11.597656 353.011719 10.503906 351.53125 9.480469 350 C 8.457031 348.46875 7.511719 346.890625 6.640625 345.265625 C 5.773438 343.640625 4.988281 341.976562 4.28125 340.277344 C 3.578125 338.574219 2.957031 336.839844 2.421875 335.078125 C 1.886719 333.316406 1.441406 331.53125 1.082031 329.722656 C 0.722656 327.917969 0.453125 326.097656 0.269531 324.261719 C 0.0898438 322.429688 0 320.59375 0 318.75 L 0 56.25 C 0 54.40625 0.0898438 52.570312 0.269531 50.738281 C 0.453125 48.902344 0.722656 47.082031 1.082031 45.277344 C 1.441406 43.46875 1.886719 41.683594 2.421875 39.921875 C 2.957031 38.160156 3.578125 36.425781 4.28125 34.722656 C 4.988281 33.023438 5.773438 31.359375 6.640625 29.734375 C 7.511719 28.109375 8.457031 26.53125 9.480469 25 C 10.503906 23.46875 11.597656 21.988281 12.769531 20.566406 C 13.9375 19.140625 15.171875 17.777344 16.476562 16.476562 C 17.777344 15.171875 19.140625 13.9375 20.566406 12.769531 C 21.988281 11.597656 23.46875 10.503906 25 9.480469 C 26.53125 8.457031 28.109375 7.511719 29.734375 6.640625 C 31.359375 5.773438 33.023438 4.988281 34.722656 4.28125 C 36.425781 3.578125 38.160156 2.957031 39.921875 2.421875 C 41.683594 1.886719 43.46875 1.441406 45.277344 1.082031 C 47.082031 0.722656 48.902344 0.453125 50.738281 0.269531 C 52.570312 0.0898438 54.40625 0 56.25 0 Z M 56.25 0"/><path fill="#FFF" d="M 131.101562 101.074219 C 131.105469 101.960938 131.058594 102.847656 130.972656 103.730469 C 130.886719 104.613281 130.757812 105.492188 130.582031 106.359375 C 130.410156 107.230469 130.195312 108.089844 129.9375 108.941406 C 129.679688 109.789062 129.378906 110.625 129.039062 111.445312 C 128.699219 112.265625 128.320312 113.066406 127.902344 113.847656 C 127.484375 114.632812 127.03125 115.390625 126.535156 116.128906 C 126.042969 116.867188 125.515625 117.578125 124.953125 118.265625 C 124.390625 118.953125 123.792969 119.609375 123.167969 120.238281 C 122.539062 120.863281 121.882812 121.460938 121.195312 122.023438 C 120.507812 122.585938 119.796875 123.113281 119.058594 123.605469 C 118.320312 124.101562 117.5625 124.554688 116.777344 124.972656 C 115.996094 125.390625 115.195312 125.769531 114.375 126.109375 C 113.554688 126.449219 112.71875 126.75 111.871094 127.007812 C 111.019531 127.265625 110.160156 127.480469 109.289062 127.652344 C 108.421875 127.828125 107.542969 127.957031 106.660156 128.042969 C 105.777344 128.128906 104.890625 128.171875 104.003906 128.171875 C 103.117188 128.171875 102.230469 128.128906 101.347656 128.042969 C 100.464844 127.957031 99.585938 127.828125 98.71875 127.652344 C 97.847656 127.480469 96.988281 127.265625 96.136719 127.007812 C 95.289062 126.75 94.453125 126.449219 93.632812 126.109375 C 92.8125 125.769531 92.011719 125.390625 91.230469 124.972656 C 90.445312 124.554688 89.6875 124.101562 88.949219 123.605469 C 88.210938 123.113281 87.5 122.585938 86.8125 122.023438 C 86.125 121.460938 85.46875 120.863281 84.839844 120.238281 C 84.214844 119.609375 83.617188 118.953125 83.054688 118.265625 C 82.492188 117.578125 81.964844 116.867188 81.472656 116.128906 C 80.976562 115.390625 80.523438 114.632812 80.105469 113.847656 C 79.6875 113.066406 79.308594 112.265625 78.96875 111.445312 C 78.628906 110.625 78.328125 109.789062 78.070312 108.941406 C 77.8125 108.089844 77.597656 107.230469 77.425781 106.359375 C 77.25 105.492188 77.121094 104.613281 77.035156 103.730469 C 76.949219 102.847656 76.902344 101.960938 76.902344 101.074219 C 76.902344 100.1875 76.949219 99.300781 77.035156 98.417969 C 77.121094 97.535156 77.25 96.65625 77.425781 95.789062 C 77.597656 94.917969 77.8125 94.058594 78.070312 93.207031 C 78.328125 92.359375 78.628906 91.523438 78.96875 90.703125 C 79.308594 89.882812 79.6875 89.082031 80.105469 88.300781 C 80.523438 87.515625 80.976562 86.757812 81.472656 86.019531 C 81.964844 85.28125 82.492188 84.570312 83.054688 83.882812 C 83.617188 83.195312 84.214844 82.539062 84.839844 81.910156 C 85.46875 81.285156 86.125 80.6875 86.8125 80.125 C 87.5 79.5625 88.210938 79.035156 88.949219 78.542969 C 89.6875 78.046875 90.445312 77.59375 91.230469 77.175781 C 92.011719 76.757812 92.8125 76.378906 93.632812 76.039062 C 94.453125 75.699219 95.289062 75.398438 96.136719 75.140625 C 96.988281 74.882812 97.847656 74.667969 98.71875 74.496094 C 99.585938 74.320312 100.464844 74.191406 101.347656 74.105469 C 102.230469 74.019531 103.117188 73.976562 104.003906 73.972656 C 104.890625 73.976562 105.777344 74.019531 106.660156 74.105469 C 107.542969 74.191406 108.421875 74.320312 109.289062 74.496094 C 110.160156 74.667969 111.019531 74.882812 111.871094 75.140625 C 112.71875 75.398438 113.554688 75.699219 114.375 76.039062 C 115.195312 76.378906 115.996094 76.757812 116.777344 77.175781 C 117.5625 77.59375 118.320312 78.046875 119.058594 78.542969 C 119.796875 79.035156 120.507812 79.5625 121.195312 80.125 C 121.882812 80.6875 122.539062 81.285156 123.167969 81.910156 C 123.792969 82.539062 124.390625 83.195312 124.953125 83.882812 C 125.515625 84.570312 126.042969 85.28125 126.535156 86.019531 C 127.03125 86.757812 127.484375 87.515625 127.902344 88.300781 C 128.320312 89.082031 128.699219 89.882812 129.039062 90.703125 C 129.378906 91.523438 129.679688 92.359375 129.9375 93.207031 C 130.195312 94.058594 130.410156 94.917969 130.582031 95.789062 C 130.757812 96.65625 130.886719 97.535156 130.972656 98.417969 C 131.058594 99.300781 131.105469 100.1875 131.101562 101.074219 Z M 131.101562 101.074219"/><path transform="scale(.73242)" fill="#FFF" d="M 244.000011 194.000014 L 244.000011 392.000027 M 142.000004 194.000014 L 142.000004 392.000027" stroke="#FFF" stroke-width="66"/><path fill="#FFF" d="M 202.148438 206.542969 C 202.148438 191.894531 211.667969 177.246094 228.515625 177.246094 C 246.09375 177.246094 252.683594 190.429688 252.683594 210.203125 L 252.683594 287.109375 L 301.023438 287.109375 L 301.023438 204.34375 C 301.023438 159.667969 277.585938 139.160156 245.359375 139.160156 C 220.457031 139.160156 208.007812 153.074219 202.148438 162.597656"/></svg>