<svg xmlns="http://www.w3.org/2000/svg" xmlns:xlink="http://www.w3.org/1999/xlink" width="375" viewBox="0 0 375 375" height="375" version="1.0"><defs><linearGradient x1=".5" gradientTransform="matrix(375 0 0 375 0 0)" xmlns:xlink="http://www.w3.org/1999/xlink" y1="0" x2=".5" gradientUnits="userSpaceOnUse" y2="1" xlink:type="simple" xlink:actuate="onLoad" id="b" xlink:show="other"><stop stop-color="#DA552F" offset="0"/><stop stop-color="#DA552F" offset=".063"/><stop stop-color="#D9542E" offset=".125"/><stop stop-color="#D8532D" offset=".188"/><stop stop-color="#D8532D" offset=".25"/><stop stop-color="#D7522C" offset=".313"/><stop stop-color="#D7512B" offset=".375"/><stop stop-color="#D6512B" offset=".438"/><stop stop-color="#D5502A" offset=".5"/><stop stop-color="#D5502A" offset=".563"/><stop stop-color="#D44F29" offset=".625"/><stop stop-color="#D34E28" offset=".688"/><stop stop-color="#D34E28" offset=".75"/><stop stop-color="#D24D27" offset=".813"/><stop stop-color="#D24D27" offset=".875"/><stop stop-color="#D14C26" offset=".938"/><stop stop-color="#D04B25" offset="1"/></linearGradient><clipPath id="a"><path d="M 187.5 375 C 291.050781 375 375 291.050781 375 187.5 C 375 83.945312 291.050781 0 187.5 0 C 83.945312 0 0 83.945312 0 187.5 C 0 291.050781 83.945312 375 187.5 375 Z M 187.5 375" clip-rule="evenodd"/></clipPath></defs><g clip-path="url(#a)"><path fill="url(#b)" d="M-37.5 -37.5H412.5V412.5H-37.5z"/></g><path fill="#FFF" d="M 140.625 112.5 L 140.625 262.5 L 168.75 262.5 L 168.75 215.625 L 211.316406 215.625 C 239.574219 214.878906 262.5 191.953125 262.5 164.0625 C 262.5 135.421875 239.574219 112.5 211.316406 112.5 Z M 211.65625 187.5 L 168.75 187.5 L 168.75 140.625 L 211.65625 140.625 C 224.207031 140.625 234.375 151.128906 234.375 164.0625 C 234.375 176.996094 224.207031 187.5 211.65625 187.5 Z M 211.65625 187.5" fill-rule="evenodd"/></svg>