<svg xmlns="http://www.w3.org/2000/svg" width="375" viewBox="0 0 375 375" height="375" version="1.0"><path fill="#37AEE2" d="M 56.25 0 L 318.75 0 C 320.59375 0 322.429688 0.0898438 324.261719 0.269531 C 326.097656 0.453125 327.917969 0.722656 329.722656 1.082031 C 331.53125 1.441406 333.316406 1.886719 335.078125 2.421875 C 336.839844 2.957031 338.574219 3.578125 340.277344 4.28125 C 341.976562 4.988281 343.640625 5.773438 345.265625 6.640625 C 346.890625 7.511719 348.46875 8.457031 350 9.480469 C 351.53125 10.503906 353.011719 11.597656 354.433594 12.769531 C 355.859375 13.9375 357.222656 15.171875 358.523438 16.476562 C 359.828125 17.777344 361.0625 19.140625 362.230469 20.566406 C 363.402344 21.988281 364.496094 23.46875 365.519531 25 C 366.542969 26.53125 367.488281 28.109375 368.359375 29.734375 C 369.226562 31.359375 370.011719 33.023438 370.71875 34.722656 C 371.421875 36.425781 372.042969 38.160156 372.578125 39.921875 C 373.113281 41.683594 373.558594 43.46875 373.917969 45.277344 C 374.277344 47.082031 374.546875 48.902344 374.730469 50.738281 C 374.910156 52.570312 375 54.40625 375 56.25 L 375 318.75 C 375 320.59375 374.910156 322.429688 374.730469 324.261719 C 374.546875 326.097656 374.277344 327.917969 373.917969 329.722656 C 373.558594 331.53125 373.113281 333.316406 372.578125 335.078125 C 372.042969 336.839844 371.421875 338.574219 370.71875 340.277344 C 370.011719 341.976562 369.226562 343.640625 368.359375 345.265625 C 367.488281 346.890625 366.542969 348.46875 365.519531 350 C 364.496094 351.53125 363.402344 353.011719 362.230469 354.433594 C 361.0625 355.859375 359.828125 357.222656 358.523438 358.523438 C 357.222656 359.828125 355.859375 361.0625 354.433594 362.230469 C 353.011719 363.402344 351.53125 364.496094 350 365.519531 C 348.46875 366.542969 346.890625 367.488281 345.265625 368.359375 C 343.640625 369.226562 341.976562 370.011719 340.277344 370.71875 C 338.574219 371.421875 336.839844 372.042969 335.078125 372.578125 C 333.316406 373.113281 331.53125 373.558594 329.722656 373.917969 C 327.917969 374.277344 326.097656 374.546875 324.261719 374.730469 C 322.429688 374.910156 320.59375 375 318.75 375 L 56.25 375 C 54.40625 375 52.570312 374.910156 50.738281 374.730469 C 48.902344 374.546875 47.082031 374.277344 45.277344 373.917969 C 43.46875 373.558594 41.683594 373.113281 39.921875 372.578125 C 38.160156 372.042969 36.425781 371.421875 34.722656 370.71875 C 33.023438 370.011719 31.359375 369.226562 29.734375 368.359375 C 28.109375 367.488281 26.53125 366.542969 25 365.519531 C 23.46875 364.496094 21.988281 363.402344 20.566406 362.230469 C 19.140625 361.0625 17.777344 359.828125 16.476562 358.523438 C 15.171875 357.222656 13.9375 355.859375 12.769531 354.433594 C 11.597656 353.011719 10.503906 351.53125 9.480469 350 C 8.457031 348.46875 7.511719 346.890625 6.640625 345.265625 C 5.773438 343.640625 4.988281 341.976562 4.28125 340.277344 C 3.578125 338.574219 2.957031 336.839844 2.421875 335.078125 C 1.886719 333.316406 1.441406 331.53125 1.082031 329.722656 C 0.722656 327.917969 0.453125 326.097656 0.269531 324.261719 C 0.0898438 322.429688 0 320.59375 0 318.75 L 0 56.25 C 0 54.40625 0.0898438 52.570312 0.269531 50.738281 C 0.453125 48.902344 0.722656 47.082031 1.082031 45.277344 C 1.441406 43.46875 1.886719 41.683594 2.421875 39.921875 C 2.957031 38.160156 3.578125 36.425781 4.28125 34.722656 C 4.988281 33.023438 5.773438 31.359375 6.640625 29.734375 C 7.511719 28.109375 8.457031 26.53125 9.480469 25 C 10.503906 23.46875 11.597656 21.988281 12.769531 20.566406 C 13.9375 19.140625 15.171875 17.777344 16.476562 16.476562 C 17.777344 15.171875 19.140625 13.9375 20.566406 12.769531 C 21.988281 11.597656 23.46875 10.503906 25 9.480469 C 26.53125 8.457031 28.109375 7.511719 29.734375 6.640625 C 31.359375 5.773438 33.023438 4.988281 34.722656 4.28125 C 36.425781 3.578125 38.160156 2.957031 39.921875 2.421875 C 41.683594 1.886719 43.46875 1.441406 45.277344 1.082031 C 47.082031 0.722656 48.902344 0.453125 50.738281 0.269531 C 52.570312 0.0898438 54.40625 0 56.25 0 Z M 56.25 0"/><path fill="#C8DAEA" d="M 145.75 295.898438 C 137.695312 295.898438 138.425781 292.96875 136.230469 285.644531 L 112.792969 208.738281 L 292.234375 103.269531"/><path fill="#A9C9DD" d="M 145.75 295.898438 C 150.878906 295.898438 153.808594 292.96875 157.46875 290.039062 L 190.429688 258.542969 L 149.414062 233.640625"/><path fill="#F6FBFE" d="M 149.414062 233.640625 L 248.289062 306.152344 C 258.542969 312.742188 267.332031 309.082031 270.261719 295.898438 L 310.546875 106.933594 C 314.207031 90.820312 303.953125 83.496094 292.96875 88.621094 L 57.863281 179.441406 C 42.480469 185.300781 42.480469 194.824219 54.933594 198.484375 L 115.722656 217.527344 L 254.882812 128.90625 C 261.472656 125.242188 267.332031 126.707031 262.9375 131.835938"/></svg>