<svg xmlns="http://www.w3.org/2000/svg" width="375" viewBox="0 0 375 375" height="375" version="1.0"><defs><clipPath id="a"><path d="M 9 5 L 365.90625 5 L 365.90625 373 L 9 373 Z M 9 5"/></clipPath></defs><path fill="#D6E5E5" d="M 72.679688 266.984375 C 93.964844 267.773438 112.933594 269.015625 133.75 273.535156 C 134.714844 273.746094 135.742188 273.988281 136.433594 274.707031 C 137.335938 275.644531 137.382812 277.082031 137.382812 278.382812 C 137.328125 291.730469 137.285156 305.070312 137.230469 318.417969 C 137.222656 320.378906 137.496094 322.777344 139.3125 323.515625 C 141.113281 324.25 142.988281 322.734375 144.335938 321.34375 C 159.484375 305.746094 178.484375 289.398438 192.058594 272.410156 C 193.605469 270.46875 195.308594 268.414062 197.699219 267.746094 C 199.523438 267.242188 201.472656 267.640625 203.332031 268.011719 C 220.980469 271.53125 239.148438 272.390625 257.042969 270.558594 C 261.890625 270.0625 266.8125 269.34375 271.207031 267.242188 C 276.292969 264.8125 280.359375 260.710938 284.300781 256.695312 C 293.566406 247.265625 302.832031 237.824219 312.097656 228.394531 C 316.441406 223.972656 320.964844 219.246094 322.472656 213.230469 C 323.304688 209.90625 323.15625 206.421875 323.003906 203 C 320.796875 152.046875 318.183594 108.875 320.816406 57.957031 C 288.429688 61.269531 252.960938 57.832031 220.449219 56.261719 C 173.585938 53.992188 124.058594 55.484375 77.152344 56.402344 C 81.910156 96.757812 80.679688 130.589844 78.605469 171.164062 C 78.011719 182.785156 77.125 194.457031 74.46875 205.785156 C 72.003906 216.296875 68.027344 226.425781 66.125 237.054688 C 64.21875 247.679688 66.957031 257.839844 72.679688 266.984375 Z M 72.679688 266.984375"/><path fill="#8A4581" d="M 66.125 237.054688 C 68.027344 226.425781 72.003906 216.289062 74.46875 205.785156 C 77.125 194.457031 78.011719 182.785156 78.605469 171.164062 C 80.679688 130.582031 81.910156 96.757812 77.152344 56.402344 C 124.058594 55.484375 173.585938 53.992188 220.449219 56.261719 C 252.960938 57.832031 288.429688 61.269531 320.816406 57.957031 C 318.183594 108.875 320.796875 152.046875 323.023438 202.992188 C 323.171875 206.414062 323.324219 209.898438 322.492188 213.222656 C 320.976562 219.238281 316.457031 223.964844 312.117188 228.386719 C 302.851562 237.816406 293.585938 247.253906 284.320312 256.6875 C 280.367188 260.710938 276.3125 264.804688 271.226562 267.234375 C 266.824219 269.335938 261.90625 270.050781 257.0625 270.546875 C 239.167969 272.382812 220.988281 271.523438 203.351562 268.003906 C 201.492188 267.632812 199.550781 267.234375 197.71875 267.738281 C 195.324219 268.402344 193.625 270.460938 192.074219 272.402344 C 178.503906 289.390625 164.117188 305.734375 148.96875 321.335938 C 147.613281 322.726562 145.746094 324.242188 143.945312 323.507812 C 142.140625 322.769531 141.855469 320.359375 141.863281 318.410156 C 141.917969 305.0625 141.960938 291.722656 142.015625 278.375 C 142.023438 277.070312 141.96875 275.636719 141.066406 274.695312 C 140.375 273.976562 139.347656 273.738281 138.382812 273.527344 C 117.566406 269.007812 93.984375 267.765625 72.695312 266.976562 C 66.957031 257.839844 64.21875 247.679688 66.125 237.054688 Z M 99.539062 316.441406 C 98.6875 332.449219 100.175781 351.59375 102.410156 367.46875 C 123.589844 366.09375 132.394531 371.03125 152.546875 364.382812 C 161.523438 361.421875 190.558594 332.652344 197.566406 322.230469 C 199.074219 319.988281 200.605469 317.613281 202.960938 316.292969 C 205.183594 315.050781 207.84375 314.933594 210.386719 314.847656 C 220.589844 314.492188 248.761719 312.773438 258.957031 312.417969 C 262.242188 312.304688 265.628906 312.171875 268.640625 310.847656 C 271.367188 309.652344 273.601562 307.578125 275.769531 305.53125 C 306.191406 276.761719 332.074219 264.582031 359.359375 232.828125 C 359.945312 227.152344 359.730469 220.25 360.140625 214.558594 C 361.617188 193.988281 360.820312 164.464844 360.023438 143.847656 C 359.5625 132.023438 359.113281 129.074219 358.652344 117.25 C 357.429688 85.554688 358.410156 54.144531 357.179688 22.449219 C 357.242188 24.140625 356.621094 12.9375 354.921875 12.894531 C 256.582031 10.765625 156.222656 6.734375 58.195312 15.046875 C 43.101562 33.777344 31.726562 53.96875 20.34375 75.160156 C 18.613281 78.367188 16.921875 81.636719 16.0625 85.183594 C 15 89.550781 15.25 94.125 15.488281 98.621094 C 19.546875 173.515625 16.460938 230.859375 13.832031 305.816406 C 13.714844 309.210938 14.035156 313.382812 17.109375 314.828125 C 18.589844 315.519531 20.308594 315.335938 21.929688 315.148438 C 47.414062 312.1875 74.042969 313.464844 99.539062 316.441406 Z M 99.539062 316.441406"/><path fill="#010101" d="M 140.324219 328.160156 C 139.417969 328.160156 138.535156 327.972656 137.640625 327.609375 C 135.425781 326.707031 132.777344 324.382812 132.800781 318.390625 L 132.953125 278.355469 C 132.953125 278.1875 132.953125 278.046875 132.953125 277.914062 C 112.863281 273.589844 95.003906 272.230469 72.519531 271.40625 C 71.050781 271.347656 69.710938 270.566406 68.933594 269.324219 C 62.855469 259.609375 60.703125 247.609375 62.863281 235.53125 C 64.128906 228.464844 65.839844 221.828125 67.488281 215.410156 C 68.390625 211.925781 69.296875 208.417969 70.15625 204.765625 C 72.589844 194.367188 73.53125 183.722656 74.175781 170.933594 C 76.152344 132.273438 76.390625 99.976562 71.5 58.460938 C 71.351562 57.210938 71.730469 55.980469 72.554688 55.03125 C 73.378906 54.082031 74.566406 53.53125 75.804688 53.507812 C 88.847656 53.257812 102.1875 52.832031 115.652344 52.40625 C 150.554688 51.324219 186.664062 50.191406 220.660156 51.832031 C 227.3125 52.148438 234.101562 52.546875 240.949219 52.957031 C 267.488281 54.535156 294.957031 56.136719 320.363281 53.542969 C 321.648438 53.382812 322.933594 53.84375 323.871094 54.738281 C 324.8125 55.632812 325.308594 56.882812 325.238281 58.175781 C 322.925781 102.925781 324.660156 141.058594 326.652344 185.195312 L 327.453125 202.789062 C 327.609375 206.546875 327.769531 210.359375 326.796875 214.285156 C 324.933594 221.660156 319.585938 227.101562 315.269531 231.480469 L 287.472656 259.78125 C 283.476562 263.839844 278.949219 268.4375 273.128906 271.222656 C 267.902344 273.703125 262.324219 274.449219 257.503906 274.945312 C 239.085938 276.851562 220.582031 275.953125 202.464844 272.339844 C 201.058594 272.0625 199.65625 271.769531 198.878906 272 C 197.804688 272.292969 196.476562 273.953125 195.519531 275.15625 C 186.335938 286.671875 174.792969 297.785156 163.640625 308.542969 C 158.066406 313.90625 152.574219 319.207031 147.515625 324.417969 C 145.097656 326.917969 142.695312 328.160156 140.324219 328.160156 Z M 75.285156 262.652344 C 97.367188 263.527344 115.226562 264.992188 134.699219 269.210938 C 135.839844 269.449219 137.992188 269.910156 139.648438 271.648438 C 141.835938 273.925781 141.820312 276.957031 141.8125 278.410156 L 141.660156 317.746094 C 146.648438 312.640625 152.035156 307.445312 157.492188 302.171875 C 168.441406 291.625 179.769531 280.695312 188.601562 269.636719 C 190.222656 267.605469 192.667969 264.546875 196.511719 263.476562 C 199.328125 262.679688 202.003906 263.226562 204.148438 263.660156 C 221.433594 267.109375 239.058594 267.953125 256.601562 266.152344 C 260.683594 265.726562 265.371094 265.125 269.320312 263.246094 C 273.734375 261.136719 277.515625 257.289062 281.164062 253.585938 L 308.964844 225.285156 C 313.488281 220.683594 317.035156 216.800781 318.203125 212.148438 C 318.875 209.472656 318.753906 206.449219 318.609375 203.257812 L 317.8125 185.613281 C 315.882812 142.925781 314.199219 105.824219 316.148438 62.839844 C 291.53125 64.832031 265.582031 63.300781 240.425781 61.820312 C 233.605469 61.421875 226.863281 61.011719 220.234375 60.695312 C 186.589844 59.0625 150.667969 60.1875 115.945312 61.289062 C 104.109375 61.660156 92.378906 62.023438 80.855469 62.28125 C 85.25 102.113281 84.957031 133.789062 83.027344 171.40625 C 82.363281 184.671875 81.378906 195.777344 78.78125 206.8125 C 77.914062 210.527344 76.992188 214.097656 76.082031 217.644531 C 74.398438 224.195312 72.792969 230.378906 71.589844 237.105469 C 69.960938 246.183594 71.269531 255.171875 75.285156 262.652344 Z M 133.644531 278.082031 L 133.730469 278.082031 Z M 133.644531 278.082031"/><g clip-path="url(#a)"><path fill="#010101" d="M 131.066406 372.386719 C 127.894531 372.386719 124.785156 372.21875 121.535156 372.039062 C 115.933594 371.730469 110.152344 371.421875 102.699219 371.890625 C 100.414062 372.085938 98.359375 370.382812 98.03125 368.089844 C 95.65625 351.273438 94.558594 334.167969 94.949219 320.378906 C 67.265625 317.371094 43.507812 317.097656 22.433594 319.542969 C 20.609375 319.730469 17.863281 320.085938 15.222656 318.828125 C 9.039062 315.929688 9.3125 308.191406 9.402344 305.65625 L 10.386719 278.523438 C 12.652344 217.210938 14.609375 164.25 11.066406 98.851562 C 10.8125 94.039062 10.535156 89.109375 11.757812 84.128906 C 12.714844 80.167969 14.523438 76.628906 16.4375 73.058594 C 27.242188 52.9375 39.105469 31.675781 54.742188 12.273438 C 55.503906 11.324219 56.609375 10.742188 57.8125 10.632812 C 143.21875 3.382812 231.160156 5.492188 316.253906 7.558594 C 329.207031 7.871094 342.140625 8.179688 355.035156 8.464844 C 360.335938 8.578125 360.972656 15.199219 361.558594 21.632812 C 361.59375 21.835938 361.617188 22.050781 361.628906 22.261719 C 361.628906 22.273438 361.628906 22.273438 361.628906 22.28125 C 362.238281 38.207031 362.300781 54.277344 362.363281 69.824219 C 362.425781 85.296875 362.488281 101.296875 363.097656 117.0625 C 363.320312 122.976562 363.550781 126.652344 363.769531 130.351562 C 364 134.046875 364.230469 137.75 364.460938 143.664062 C 365.695312 175.464844 365.730469 198.757812 364.570312 214.859375 C 364.390625 217.289062 364.339844 219.957031 364.277344 222.652344 C 364.195312 226.285156 364.109375 229.972656 363.769531 233.25 C 363.683594 234.15625 363.3125 234.996094 362.726562 235.6875 C 346.453125 254.628906 330.878906 266.570312 314.394531 279.214844 C 303.027344 287.929688 291.273438 296.953125 278.816406 308.722656 C 276.648438 310.777344 273.9375 313.339844 270.417969 314.882812 C 266.574219 316.558594 262.445312 316.707031 259.125 316.824219 C 254.039062 317 244.464844 317.515625 234.90625 318.039062 C 225.285156 318.558594 215.664062 319.074219 210.554688 319.261719 C 208.632812 319.324219 206.46875 319.402344 205.125 320.148438 C 203.804688 320.890625 202.660156 322.59375 201.445312 324.402344 C 194.164062 335.230469 164.613281 365.058594 153.949219 368.566406 C 144.71875 371.632812 137.746094 372.386719 131.066406 372.386719 Z M 110.355469 362.777344 C 114.6875 362.777344 118.503906 362.992188 122.011719 363.1875 C 131.597656 363.71875 139.136719 364.125 151.164062 360.171875 C 158.394531 357.78125 186.847656 330.234375 193.890625 319.746094 C 195.652344 317.125 197.609375 314.199219 200.792969 312.417969 C 204.015625 310.628906 207.613281 310.503906 210.234375 310.40625 C 215.300781 310.230469 224.851562 309.714844 234.410156 309.191406 C 244.046875 308.667969 253.6875 308.15625 258.804688 307.96875 C 261.640625 307.871094 264.574219 307.773438 266.867188 306.773438 C 268.96875 305.851562 270.960938 303.960938 272.722656 302.289062 C 285.507812 290.199219 297.449219 281.042969 309.007812 272.1875 C 324.792969 260.070312 339.730469 248.621094 355.082031 230.992188 C 355.285156 228.289062 355.347656 225.355469 355.410156 222.464844 C 355.480469 219.621094 355.542969 216.800781 355.71875 214.222656 C 356.851562 198.453125 356.816406 175.480469 355.59375 144.007812 C 355.375 138.183594 355.144531 134.535156 354.921875 130.898438 C 354.691406 127.148438 354.460938 123.410156 354.230469 117.410156 C 353.621094 101.492188 353.558594 85.414062 353.496094 69.867188 C 353.433594 54.480469 353.371094 38.570312 352.777344 22.875 C 352.761719 22.777344 352.742188 22.679688 352.734375 22.574219 C 352.503906 20.003906 352.265625 18.328125 352.070312 17.265625 C 340.074219 17 328.0625 16.707031 316.03125 16.414062 C 231.859375 14.382812 144.8125 12.28125 60.453125 19.3125 C 45.871094 37.738281 34.578125 58.015625 24.242188 77.25 C 22.546875 80.414062 21.085938 83.277344 20.359375 86.238281 C 19.457031 89.953125 19.679688 94.019531 19.910156 98.328125 C 23.46875 164.199219 21.511719 217.332031 19.234375 278.863281 L 18.261719 305.972656 C 18.109375 310.140625 18.976562 310.8125 18.988281 310.8125 C 19.378906 311 20.75 310.839844 21.40625 310.742188 C 44.191406 308.09375 69.925781 308.527344 100.050781 312.035156 C 102.382812 312.3125 104.089844 314.339844 103.957031 316.671875 C 103.277344 329.507812 104.109375 346.144531 106.261719 362.839844 C 107.679688 362.804688 109.042969 362.777344 110.355469 362.777344 Z M 354.84375 17.328125 C 354.851562 17.328125 354.851562 17.328125 354.859375 17.328125 C 354.851562 17.328125 354.851562 17.328125 354.84375 17.328125 Z M 354.84375 17.328125"/></g><path fill="#8A4581" d="M 187.945312 111.773438 C 176.429688 110.734375 165.394531 111.550781 153.832031 111.144531 C 153.222656 115.230469 154.125 116.675781 153.550781 119.898438 C 152.769531 124.324219 154.59375 127.964844 154.480469 132.449219 C 153.832031 156.964844 153.1875 175.410156 152.546875 199.925781 C 162.664062 199.792969 172.789062 200.007812 182.898438 200.5625 C 188.132812 191.277344 188.992188 180.425781 189.523438 169.941406 C 190.320312 154.351562 190.640625 144.804688 190.480469 129.199219 C 190.417969 123.082031 190.117188 117.535156 187.945312 111.773438 Z M 187.945312 111.773438"/><path fill="#010101" d="M 182.90625 204.996094 C 182.828125 204.996094 182.738281 204.996094 182.667969 204.988281 C 172.753906 204.4375 162.664062 204.214844 152.617188 204.367188 C 152.59375 204.367188 152.574219 204.367188 152.558594 204.367188 C 151.371094 204.367188 150.234375 203.886719 149.410156 203.054688 C 148.5625 202.195312 148.109375 201.023438 148.128906 199.828125 C 148.445312 187.542969 148.773438 176.792969 149.09375 166.042969 C 149.410156 155.308594 149.730469 144.585938 150.050781 132.34375 C 150.09375 130.703125 149.808594 129.214844 149.542969 127.746094 C 149.101562 125.246094 148.605469 122.398438 149.191406 119.121094 C 149.375 118.082031 149.332031 117.347656 149.261719 116.230469 C 149.171875 114.8125 149.074219 113.058594 149.449219 110.496094 C 149.773438 108.261719 151.6875 106.730469 153.984375 106.710938 C 158.554688 106.890625 163.027344 106.84375 167.464844 106.816406 C 174.234375 106.757812 181.207031 106.710938 188.328125 107.367188 C 190.019531 107.527344 191.472656 108.636719 192.074219 110.210938 C 194.5625 116.832031 194.839844 123.207031 194.890625 129.152344 C 195.050781 144.921875 194.722656 154.546875 193.933594 170.171875 C 193.351562 181.660156 192.359375 192.792969 186.742188 202.746094 C 185.972656 204.136719 184.492188 204.996094 182.90625 204.996094 Z M 158.324219 195.46875 C 165.660156 195.46875 173.003906 195.644531 180.273438 196 C 183.871094 188.210938 184.625 179.125 185.113281 169.71875 C 185.890625 154.289062 186.210938 144.78125 186.050781 129.242188 C 186.007812 124.765625 185.855469 120.371094 184.652344 115.972656 C 178.964844 115.609375 173.390625 115.621094 167.535156 115.691406 C 164.402344 115.707031 161.273438 115.734375 158.109375 115.691406 C 158.109375 115.699219 158.109375 115.699219 158.109375 115.707031 C 158.191406 117.054688 158.289062 118.597656 157.925781 120.679688 C 157.613281 122.425781 157.925781 124.191406 158.28125 126.21875 C 158.605469 128.089844 158.980469 130.199219 158.917969 132.59375 C 158.597656 144.839844 158.28125 155.582031 157.953125 166.316406 C 157.675781 175.710938 157.394531 185.089844 157.109375 195.484375 C 157.507812 195.46875 157.917969 195.46875 158.324219 195.46875 Z M 158.324219 195.46875"/><path fill="#8A4581" d="M 268.339844 112.492188 C 259.035156 112.074219 247.644531 113.988281 238.34375 113.570312 C 237.484375 113.535156 236.507812 113.535156 235.925781 114.164062 C 235.410156 114.722656 235.394531 115.558594 235.402344 116.3125 C 235.878906 145.796875 236.359375 166.421875 236.835938 195.910156 C 236.855469 196.816406 236.882812 197.773438 237.402344 198.507812 C 237.972656 199.316406 238.972656 199.660156 239.910156 199.945312 C 247.601562 202.265625 255.609375 203.558594 263.644531 203.773438 C 267.503906 191.578125 269.851562 178.902344 270.613281 166.128906 C 271.890625 144.539062 266.546875 134.046875 268.339844 112.492188 Z M 268.339844 112.492188"/><path fill="#010101" d="M 263.644531 208.203125 C 263.609375 208.203125 263.5625 208.203125 263.527344 208.203125 C 255.121094 207.992188 246.742188 206.636719 238.617188 204.1875 C 237.511719 203.851562 235.242188 203.160156 233.761719 201.050781 C 232.441406 199.164062 232.417969 197.082031 232.40625 195.964844 C 232.175781 181.640625 231.9375 169.390625 231.707031 157.1875 C 231.46875 144.328125 231.210938 131.519531 230.972656 116.382812 C 230.945312 115.40625 230.894531 113.050781 232.683594 111.132812 C 234.667969 108.972656 237.457031 109.140625 238.511719 109.132812 C 242.90625 109.363281 248.042969 108.964844 253.011719 108.601562 C 258.222656 108.226562 263.617188 107.8125 268.523438 108.058594 C 269.730469 108.113281 270.863281 108.644531 271.652344 109.558594 C 272.449219 110.460938 272.847656 111.648438 272.742188 112.84375 C 271.855469 123.507812 272.785156 131.273438 273.757812 139.496094 C 274.699219 147.375 275.671875 155.53125 275.027344 166.378906 C 274.253906 179.488281 271.847656 192.515625 267.859375 205.101562 C 267.285156 206.964844 265.574219 208.203125 263.644531 208.203125 Z M 239.867188 118.046875 C 240.097656 132.574219 240.335938 144.769531 240.566406 157.011719 C 240.796875 169.214844 241.035156 181.472656 241.265625 195.839844 C 247.46875 197.613281 253.917969 198.765625 260.402344 199.191406 C 263.570312 188.304688 265.511719 177.121094 266.175781 165.863281 C 266.769531 155.789062 265.894531 148.386719 264.953125 140.550781 C 264.113281 133.433594 263.246094 126.113281 263.617188 116.886719 C 260.402344 116.957031 256.980469 117.207031 253.640625 117.445312 C 249.042969 117.773438 244.269531 118.101562 239.867188 118.046875 Z M 239.867188 118.046875"/></svg>