<svg xmlns="http://www.w3.org/2000/svg" width="375" viewBox="0 0 375 375" height="375" version="1.0"><path fill="#1D9BF0" d="M 328.125 375 L 46.875 375 C 21 375 0 354 0 328.125 L 0 46.875 C 0 21 21 0 46.875 0 L 328.125 0 C 354 0 375 21 375 46.875 L 375 328.125 C 375 354 354 375 328.125 375 Z M 328.125 375"/><path fill="#FFF" d="M 144 282.75 C 232.40625 282.75 280.78125 209.4375 280.78125 145.96875 C 280.78125 143.90625 280.78125 141.84375 280.6875 139.78125 C 290.0625 133.03125 298.21875 124.5 304.6875 114.84375 C 296.0625 118.6875 286.78125 121.21875 277.03125 122.4375 C 286.96875 116.53125 294.5625 107.0625 298.21875 95.8125 C 288.9375 101.34375 278.625 105.28125 267.65625 107.4375 C 258.84375 98.0625 246.375 92.25 232.59375 92.25 C 206.0625 92.25 184.5 113.8125 184.5 140.34375 C 184.5 144.09375 184.96875 147.75 185.71875 151.3125 C 145.78125 149.34375 110.34375 130.125 86.625 101.0625 C 82.5 108.1875 80.15625 116.4375 80.15625 125.25 C 80.15625 141.9375 88.6875 156.65625 101.53125 165.28125 C 93.65625 165 86.25 162.84375 79.78125 159.28125 C 79.78125 159.46875 79.78125 159.65625 79.78125 159.9375 C 79.78125 183.1875 96.375 202.6875 118.3125 207.09375 C 114.28125 208.21875 110.0625 208.78125 105.65625 208.78125 C 102.5625 208.78125 99.5625 208.5 96.65625 207.9375 C 102.75 227.0625 120.5625 240.9375 141.5625 241.3125 C 125.0625 254.25 104.34375 261.9375 81.84375 261.9375 C 78 261.9375 74.15625 261.75 70.40625 261.28125 C 91.59375 274.78125 116.90625 282.75 144 282.75"/></svg>