<svg xmlns="http://www.w3.org/2000/svg" width="375" viewBox="0 0 375 375" height="375" version="1.0"><path fill="#E52D27" d="M 375 318.011719 C 375 349.4375 349.4375 375 318.011719 375 L 56.988281 375 C 25.5625 375 0 349.4375 0 318.011719 L 0 56.988281 C 0 25.5625 25.5625 0 56.988281 0 L 318.011719 0 C 349.4375 0 375 25.5625 375 56.988281 Z M 375 318.011719"/><path fill="#FFF" d="M 320.421875 190.46875 C 320.421875 211.203125 320.421875 233.175781 315.792969 253.261719 C 312.53125 267.410156 300.992188 277.777344 287.035156 279.34375 C 254.109375 282.996094 220.722656 283.058594 187.53125 282.996094 C 154.277344 282.996094 121.023438 282.996094 88.027344 279.34375 C 74.140625 277.777344 62.53125 267.410156 59.273438 253.261719 C 54.644531 233.175781 54.644531 211.203125 54.644531 190.46875 C 54.644531 169.730469 54.707031 147.757812 59.273438 127.671875 C 62.53125 113.523438 74.074219 103.15625 88.027344 101.589844 C 121.023438 97.875 154.34375 97.875 187.53125 97.875 C 220.722656 97.875 254.042969 97.875 287.035156 101.589844 C 300.925781 103.15625 312.53125 113.523438 315.792969 127.671875 C 320.421875 147.757812 320.421875 169.730469 320.421875 190.46875 Z M 320.421875 190.46875"/><path fill="#E52D27" d="M 159.558594 141.039062 L 159.558594 240.347656 L 236.699219 190.664062 Z M 159.558594 141.039062"/></svg>